<svg xmlns="http://www.w3.org/2000/svg" xmlns:xlink="http://www.w3.org/1999/xlink" width="500" zoomAndPan="magnify" viewBox="0 0 375 374.999991" height="500" preserveAspectRatio="xMidYMid meet" version="1.0"><path fill="#7000ad" d="M 19.574219 257.136719 C 28.792969 265.445312 42.992188 264.691406 51.285156 255.460938 C 59.578125 246.222656 58.828125 232.003906 49.609375 223.695312 C 40.386719 215.390625 26.1875 216.144531 17.894531 225.375 C 9.601562 234.609375 10.351562 248.832031 19.574219 257.136719 Z M 82.933594 241.363281 C 81.980469 234.898438 79.554688 228.738281 75.542969 223.578125 L 62.230469 206.453125 C 55.359375 197.613281 45.425781 191.539062 34.359375 189.9375 C 31.726562 189.558594 29.097656 188.882812 26.511719 187.890625 C 7.121094 180.460938 -2.304688 158.289062 6.089844 139.015625 C 13.589844 121.808594 33.210938 113.039062 51.011719 118.929688 C 74.984375 126.863281 76.003906 148.257812 74.109375 161.128906 C 73.046875 168.355469 75.03125 175.699219 79.511719 181.460938 L 90.753906 195.921875 C 97.753906 204.929688 111.425781 204.679688 118.101562 195.429688 L 125.84375 184.699219 C 134.953125 172.070312 138.265625 156.296875 135.65625 140.9375 C 134.328125 133.125 135.007812 124.867188 138.042969 116.921875 C 147.207031 92.9375 174.3125 81.109375 198.175781 90.910156 C 220.320312 100.003906 232.003906 126.636719 223.734375 149.128906 C 217.746094 165.429688 203.523438 176.234375 187.558594 178.636719 C 172.234375 180.945312 158.398438 189.105469 149.324219 201.6875 L 134.628906 222.054688 C 130.738281 227.449219 128.234375 233.742188 127.566406 240.359375 C 127.375 242.300781 126.921875 244.246094 126.191406 246.152344 C 122.976562 254.566406 115.265625 259.9375 106.847656 260.566406 L 104.332031 260.609375 C 101.933594 260.515625 99.511719 260.046875 97.148438 259.136719 C 89.28125 256.125 84.078125 249.160156 82.933594 241.363281 " fill-opacity="1" fill-rule="nonzero"/><path fill="#005aad" d="M 326.824219 158.289062 C 336.042969 166.59375 350.238281 165.839844 358.535156 156.605469 C 366.828125 147.375 366.074219 133.152344 356.855469 124.847656 C 347.632812 116.539062 333.4375 117.289062 325.144531 126.523438 C 316.847656 135.761719 317.601562 149.976562 326.824219 158.289062 Z M 296.253906 138.757812 C 296.875 145.265625 298.980469 151.542969 302.722656 156.902344 L 315.148438 174.6875 C 321.554688 183.863281 331.164062 190.441406 342.136719 192.605469 C 344.742188 193.121094 347.335938 193.933594 349.871094 195.054688 C 368.855469 203.46875 377.136719 226.09375 367.765625 244.910156 C 359.398438 261.710938 339.355469 269.460938 321.878906 262.667969 C 298.34375 253.523438 298.414062 232.101562 300.964844 219.34375 C 302.398438 212.179688 300.792969 204.742188 296.609375 198.757812 L 286.121094 183.742188 C 279.589844 174.390625 265.921875 173.933594 258.785156 182.832031 L 250.507812 193.148438 C 240.765625 205.292969 236.648438 220.878906 238.472656 236.351562 C 239.394531 244.226562 238.292969 252.4375 234.859375 260.214844 C 224.480469 283.703125 196.804688 294.125 173.472656 283.113281 C 151.828125 272.894531 141.515625 245.699219 150.921875 223.660156 C 157.738281 207.683594 172.496094 197.628906 188.5625 196.039062 C 203.984375 194.523438 218.21875 187.082031 227.925781 174.984375 L 243.640625 155.394531 C 247.796875 150.210938 250.621094 144.050781 251.621094 137.476562 C 251.917969 135.550781 252.46875 133.628906 253.296875 131.761719 C 256.9375 123.523438 264.914062 118.554688 273.347656 118.359375 L 275.863281 118.441406 C 278.253906 118.660156 280.652344 119.253906 282.964844 120.28125 C 290.671875 123.695312 295.503906 130.917969 296.253906 138.757812 " fill-opacity="1" fill-rule="nonzero"/></svg>